# xmcd
#
# Track frame offsets: 
#        150
#        15008
#        33372
#        45236
#        61358
#        82619
#        97470
#        113010
#        129727
#        146436
#
# Disc length: 2251 seconds
#
# Revision: 3
# Processed by: cddbd v1.5.2PL0 Copyright (c) Steve Scherf et al.
# Submitted via: ExactAudioCopyFreeDBPlugin 1.0
#
DISCID=7208c90a
DTITLE=Emmylou Harris - Pieces Of The Sky - Original Album Series -
DYEAR=1975
DGENRE=Country
TTITLE0=Bluebird Wine
TTITLE1=Too Far Gone
TTITLE2=If I Could Only Win Your Love (with Herb Pedersen)
TTITLE3=Boulder To Birmingham
TTITLE4=Before Believing
TTITLE5=Bottle Let Me Down
TTITLE6=Sleepless Nights
TTITLE7=Coat Of Many Colors
TTITLE8=For No One
TTITLE9=Queen Of The Silver Dollar
EXTD=YEAR: 1975
EXTT0=
EXTT1=
EXTT2=
EXTT3=
EXTT4=
EXTT5=
EXTT6=
EXTT7=
EXTT8=
EXTT9=
PLAYORDER=
